<?xml version="1.0" encoding="UTF-8"?>
<svg version="1.1" xmlns="http://www.w3.org/2000/svg" width="512" height="512">
<path d="M0 0 C1.01545898 0.19867676 2.03091797 0.39735352 3.07714844 0.60205078 C52.9758035 10.58327711 96.53871388 34.88580573 133 70 C133.7940625 70.7528125 134.588125 71.505625 135.40625 72.28125 C140.75597303 77.46114055 145.38660506 83.16405541 150 89 C151.19109375 90.48306641 151.19109375 90.48306641 152.40625 91.99609375 C175.32205725 121.03970389 191.22147176 154.85685587 199.6875 190.8125 C199.97306763 191.99936401 199.97306763 191.99936401 200.2644043 193.21020508 C204.22851721 210.89052902 205.555362 228.61292655 205.4375 246.6875 C205.43293793 248.18546112 205.43293793 248.18546112 205.42828369 249.71368408 C205.35621635 265.78341917 204.43972751 281.25213186 201 297 C200.78037598 298.02625488 200.56075195 299.05250977 200.33447266 300.10986328 C191.83138831 338.85817193 174.61772522 375.56726438 149 406 C148.57138672 406.51739746 148.14277344 407.03479492 147.70117188 407.56787109 C137.18164284 420.2564129 126.03816903 431.86528878 113 442 C111.52660156 443.18142578 111.52660156 443.18142578 110.0234375 444.38671875 C79.03075655 469.0530687 42.45229279 485.30136285 3.75 493.25 C3.01966553 493.40114258 2.28933105 493.55228516 1.53686523 493.70800781 C-13.82073758 496.67407563 -29.02143327 497.37492896 -44.625 497.3125 C-45.59588562 497.31034485 -46.56677124 497.3081897 -47.56707764 497.30596924 C-61.90585186 497.25491637 -75.90546967 496.85949913 -90 494 C-91.01545898 493.80132324 -92.03091797 493.60264648 -93.07714844 493.39794922 C-142.9758035 483.41672289 -186.53871388 459.11419427 -223 424 C-223.7940625 423.2471875 -224.588125 422.494375 -225.40625 421.71875 C-230.75597303 416.53885945 -235.38660506 410.83594459 -240 405 C-240.7940625 404.01128906 -241.588125 403.02257812 -242.40625 402.00390625 C-266.9776499 370.86198961 -283.32468106 334.48759715 -291.25 295.6875 C-291.47671387 294.57942993 -291.47671387 294.57942993 -291.70800781 293.44897461 C-292.18439803 290.97158418 -292.60252786 288.49133778 -293 286 C-293.17805176 284.88423584 -293.35610352 283.76847168 -293.53955078 282.61889648 C-295.19998488 270.98027732 -295.3987437 259.43103747 -295.375 247.6875 C-295.37445618 246.6738739 -295.37391235 245.6602478 -295.37335205 244.61590576 C-295.33347417 228.41878779 -294.46747801 212.87491635 -291 197 C-290.78037598 195.97374512 -290.56075195 194.94749023 -290.33447266 193.89013672 C-279.82149525 145.98280374 -255.85138923 104.15003587 -222 69 C-221.2471875 68.2059375 -220.494375 67.411875 -219.71875 66.59375 C-214.53885945 61.24402697 -208.83594459 56.61339494 -203 52 C-202.01128906 51.2059375 -201.02257812 50.411875 -200.00390625 49.59375 C-167.66655102 24.07913264 -130.33332447 7.86607287 -90 0 C-89.17274414 -0.16661133 -88.34548828 -0.33322266 -87.49316406 -0.50488281 C-59.91781494 -5.80488028 -27.50199116 -5.57960557 0 0 Z " fill="#D54554" transform="translate(301,9)"/>
<path d="M0 0 C1.07070895 -0.00551503 1.07070895 -0.00551503 2.16304839 -0.01114148 C4.55504616 -0.02215519 6.94700046 -0.02601817 9.33901978 -0.02983093 C11.05399208 -0.03609718 12.76896303 -0.04274413 14.4839325 -0.04974365 C20.11481789 -0.0707619 25.74570351 -0.08114185 31.37661743 -0.09111023 C33.31554809 -0.09515819 35.2544786 -0.09927513 37.19340897 -0.10346031 C46.30021699 -0.12250465 55.40701693 -0.136739 64.51384103 -0.14507228 C75.02703004 -0.15485151 85.5400089 -0.18119207 96.05312383 -0.22157317 C104.1797721 -0.25171746 112.30636005 -0.26653943 120.43306315 -0.26985329 C125.28689504 -0.27220511 130.1405022 -0.28118309 134.99427414 -0.30631447 C139.55961076 -0.32957161 144.12457428 -0.33383797 148.68995476 -0.32355309 C150.36451012 -0.32305709 152.03908371 -0.32939634 153.71358299 -0.34310913 C156.00196696 -0.36079941 158.28900763 -0.35373739 160.57739258 -0.34057617 C162.4970688 -0.3441587 162.4970688 -0.3441587 164.45552635 -0.34781361 C169.72101522 0.40542927 172.77083132 2.84761313 176.22817993 6.77217102 C178.55082232 10.04107512 179.04085234 11.68023408 179.04266357 15.63290405 C179.0454834 16.57659348 179.04830322 17.5202829 179.0512085 18.49256897 C179.04817215 20.05035065 179.04817215 20.05035065 179.04507446 21.63960266 C179.04770294 23.27623116 179.04770294 23.27623116 179.05038452 24.94592285 C179.05479978 28.56640699 179.05186637 32.18684261 179.04849243 35.80732727 C179.04916551 38.31314097 179.05013558 40.8189546 179.0513916 43.32476807 C179.05286809 48.58141072 179.05081016 53.83804064 179.04605103 59.09468079 C179.04060583 65.17952888 179.04237346 71.26434349 179.04787743 77.34919077 C179.05295407 83.19472645 179.05242721 89.04024935 179.0494957 94.88578606 C179.04882625 97.37740013 179.04965547 99.86901505 179.05197525 102.36062813 C179.05450013 105.83515347 179.05066363 109.30961346 179.04507446 112.78413391 C179.04709869 113.82467926 179.04912292 114.86522461 179.0512085 115.93730164 C179.04697876 117.34860603 179.04697876 117.34860603 179.04266357 118.78842163 C179.04228655 119.61082871 179.04190952 120.4332358 179.04152107 121.28056431 C178.91567993 123.14717102 178.91567993 123.14717102 177.91567993 124.14717102 C176.4999787 124.23368713 175.08008493 124.25422006 173.66177368 124.24482727 C172.80776978 124.24160461 171.95376587 124.23838196 171.07388306 124.23506165 C170.17605103 124.22668274 169.27821899 124.21830383 168.35317993 124.20967102 C167.45148071 124.2051593 166.54978149 124.20064758 165.62075806 124.19599915 C163.38570404 124.18417346 161.15068391 124.16623741 158.91567993 124.14717102 C158.91567993 129.09717102 158.91567993 134.04717102 158.91567993 139.14717102 C160.27564087 139.13556946 161.63560181 139.1239679 163.03677368 139.11201477 C164.80890773 139.1026384 166.58104326 139.09353804 168.35317993 139.08467102 C169.25101196 139.07629211 170.14884399 139.06791321 171.07388306 139.0592804 C172.35488892 139.05444641 172.35488892 139.05444641 173.66177368 139.04951477 C174.45253296 139.04427795 175.24329224 139.03904114 176.05801392 139.03364563 C177.91567993 139.14717102 177.91567993 139.14717102 178.91567993 140.14717102 C179.28462027 144.63831849 179.28773759 149.14293247 179.35317993 153.64717102 C179.42182251 155.53049133 179.42182251 155.53049133 179.49185181 157.45185852 C179.59082032 165.6619423 178.61431375 171.04342935 172.91567993 177.14717102 C169.00437456 180.40659216 165.97379129 181.66544613 160.91567993 182.14717102 C160.89505493 183.13717102 160.87442993 184.12717102 160.85317993 185.14717102 C160.10531199 190.40361426 156.68855711 193.65725963 152.91567993 197.14717102 C147.53949889 201.14804994 141.3558758 200.80270678 134.91567993 200.14717102 C131.47817993 198.89717102 131.47817993 198.89717102 128.91567993 197.14717102 C127.61630493 196.28092102 127.61630493 196.28092102 126.29067993 195.39717102 C123.26082521 192.52678234 121.75690751 189.89781979 119.91567993 186.14717102 C119.91567993 185.15717102 119.91567993 184.16717102 119.91567993 183.14717102 C116.28567993 183.14717102 112.65567993 183.14717102 108.91567993 183.14717102 C108.88474243 184.38467102 108.88474243 184.38467102 108.85317993 185.64717102 C107.25116694 191.62801951 103.11278612 195.51211525 98.22817993 199.14717102 C92.0195303 201.02148034 85.58859306 201.11913943 79.47817993 198.89717102 C73.33675842 194.7030295 69.76514639 191.54503685 67.91567993 184.14717102 C35.74067993 183.65217102 35.74067993 183.65217102 2.91567993 183.14717102 C1.92567993 186.11717102 1.92567993 186.11717102 0.91567993 189.14717102 C-2.05194706 194.96371993 -6.04565263 197.93582802 -12.08432007 200.14717102 C-18.28793469 201.16352828 -24.68420798 200.50550519 -30.08432007 197.14717102 C-35.17594438 192.67719852 -36.94058561 190.00957779 -38.08432007 183.14717102 C-53.26432007 183.47717102 -68.44432007 183.80717102 -84.08432007 184.14717102 C-85.07432007 186.45717102 -86.06432007 188.76717102 -87.08432007 191.14717102 C-90.94113832 195.75392615 -95.41127866 199.60701787 -101.47494507 200.49873352 C-108.15295043 200.72406499 -113.93758674 199.85482528 -119.09994507 195.41279602 C-123.1682228 191.14606572 -124.96121192 188.05636234 -125.08432007 182.14717102 C-125.90932007 182.10592102 -126.73432007 182.06467102 -127.58432007 182.02217102 C-133.29700352 180.59400016 -137.54120024 177.2378495 -141.02182007 172.52217102 C-142.9987804 168.10308322 -143.21787691 164.29791105 -143.24545288 159.4577179 C-143.25041779 158.79365936 -143.25538269 158.12960083 -143.26049805 157.44541931 C-143.27507811 155.25224253 -143.28191774 153.05913828 -143.28744507 150.86592102 C-143.29027245 150.11228775 -143.29309982 149.35865448 -143.29601288 148.58218384 C-143.31099552 144.58724112 -143.32022843 140.59233437 -143.32455444 136.59736633 C-143.33001123 132.50012986 -143.35398214 128.40323041 -143.3825264 124.30609894 C-143.40130168 121.1316182 -143.40636641 117.95721586 -143.40789032 114.78268433 C-143.41088828 113.27423274 -143.41881828 111.76578156 -143.4320755 110.25738525 C-143.59017712 90.8713182 -138.49820058 74.51381314 -125.08432007 60.14717102 C-112.08352372 47.00271946 -96.56760267 39.27581958 -77.96932983 39.01777649 C-76.07147286 39.01125353 -74.1735903 39.01036408 -72.27572632 39.01435852 C-71.26839951 39.01340179 -70.26107269 39.01244507 -69.22322083 39.01145935 C-67.1096185 39.01078249 -64.99601404 39.01260211 -62.88241577 39.01679993 C-59.63261332 39.0221946 -56.38294661 39.01681818 -53.13314819 39.01045227 C-51.07650726 39.01111237 -49.01986642 39.01239212 -46.96322632 39.01435852 C-45.98729019 39.01233429 -45.01135406 39.01031006 -44.00584412 39.00822449 C-43.11078659 39.01137665 -42.21572906 39.01452881 -41.29354858 39.01777649 C-40.10729637 39.01896988 -40.10729637 39.01896988 -38.89707947 39.02018738 C-37.08432007 39.14717102 -37.08432007 39.14717102 -36.08432007 40.14717102 C-35.98899679 43.22171863 -35.95880627 46.2737626 -35.97079468 49.34858704 C-35.97064865 50.31433655 -35.97050262 51.28008606 -35.97035217 52.27510071 C-35.97105173 55.48378201 -35.9788461 58.69240605 -35.98666382 61.90107727 C-35.98852785 64.1192522 -35.98995182 66.33742754 -35.99095154 68.55560303 C-35.99477791 74.40657173 -36.00460921 80.25751579 -36.01565552 86.10847473 C-36.02586707 92.07384406 -36.03044861 98.03921735 -36.03549194 104.0045929 C-36.04623138 115.7187982 -36.06382914 127.43297871 -36.08432007 139.14717102 C-24.20432007 139.14717102 -12.32432007 139.14717102 -0.08432007 139.14717102 C-0.08432007 134.19717102 -0.08432007 129.24717102 -0.08432007 124.14717102 C-6.35432007 124.14717102 -12.62432007 124.14717102 -19.08432007 124.14717102 C-20.25853086 121.79874943 -20.21750925 120.3959478 -20.23149109 117.77774048 C-20.23864639 116.85955032 -20.2458017 115.94136017 -20.25317383 114.99534607 C-20.25586273 113.9849527 -20.25855164 112.97455933 -20.26132202 111.93354797 C-20.26789322 110.87160721 -20.27446442 109.80966644 -20.28123474 108.71554565 C-20.30100159 105.1888472 -20.31263865 101.66219142 -20.32260132 98.13545227 C-20.32667685 96.93244162 -20.33075237 95.72943096 -20.3349514 94.48996544 C-20.35582779 88.12122645 -20.37012204 81.75250911 -20.37948608 75.38374329 C-20.39054644 68.80405061 -20.42493802 62.22469651 -20.46465778 55.64512348 C-20.49080294 50.58789439 -20.49917615 45.53074616 -20.50276756 40.47345543 C-20.50763987 38.04818119 -20.51927206 35.62291072 -20.53780556 33.19770241 C-20.56214857 29.80078461 -20.56124017 26.40474502 -20.55429077 23.00776672 C-20.56710083 22.00749451 -20.57991089 21.00722229 -20.59310913 19.97663879 C-20.5472137 13.81463611 -19.69375935 10.18684805 -16.08432007 5.14717102 C-10.89508869 0.21740121 -6.99374175 0.02336741 0 0 Z " fill="#FDF9F9" transform="translate(238.08432006835938,155.8528289794922)"/>
<path d="M0 0 C1.05082804 -0.00445668 1.05082804 -0.00445668 2.12288493 -0.0090034 C4.4819749 -0.01770934 6.84101424 -0.01920024 9.20011902 -0.02069092 C10.88686227 -0.02531777 12.57360448 -0.03034225 14.26034546 -0.03573608 C18.85132502 -0.04887532 23.44228995 -0.05530806 28.03328538 -0.05974674 C30.90009843 -0.06267515 33.76690746 -0.06677953 36.63371849 -0.07125092 C45.59904074 -0.08493016 54.56435383 -0.0945946 63.5296858 -0.09845281 C73.88665608 -0.10293407 84.24349443 -0.12048336 94.60042459 -0.1494534 C102.60047961 -0.17105574 110.60049747 -0.18115632 118.60058135 -0.18249393 C123.38115008 -0.18354304 128.16159486 -0.18947335 132.94213295 -0.20731354 C137.43927185 -0.2237691 141.93619328 -0.225962 146.43335152 -0.21717453 C148.08413016 -0.21640279 149.73492038 -0.22076488 151.38566971 -0.23063278 C153.63929051 -0.24331457 155.89213675 -0.23749658 158.14575195 -0.22705078 C159.4069325 -0.22851734 160.66811304 -0.2299839 161.96751118 -0.2314949 C166.52049889 0.28231145 169.06940827 1.94649873 172.26335144 5.14044189 C172.5094471 7.02636147 172.5094471 7.02636147 172.50386047 9.36715698 C172.50799296 10.69374297 172.50799296 10.69374297 172.51220894 12.04712868 C172.50141461 13.51185143 172.50141461 13.51185143 172.49040222 15.00616455 C172.49064329 16.04718512 172.49088436 17.08820568 172.49113274 18.16077232 C172.48963584 21.54210226 172.4743858 24.92321373 172.45866394 28.30450439 C172.45572468 30.38742975 172.45368352 32.47035657 172.45256042 34.55328369 C172.4420596 42.29069224 172.41413736 50.02806919 172.38835144 57.76544189 C172.34710144 75.04919189 172.30585144 92.33294189 172.26335144 110.14044189 C111.21335144 110.14044189 50.16335144 110.14044189 -12.73664856 110.14044189 C-12.81914856 93.08356689 -12.90164856 76.02669189 -12.98664856 58.45294189 C-13.02306458 53.06893066 -13.05948059 47.68491943 -13.09700012 42.13775635 C-13.11506653 35.55877686 -13.11506653 35.55877686 -13.11842346 32.47801208 C-13.12456231 30.32819813 -13.13862353 28.17839788 -13.15895081 26.02867126 C-13.18821666 22.77051905 -13.19227313 19.51320775 -13.19075012 16.25494385 C-13.20514256 15.2986247 -13.21953499 14.34230555 -13.23436356 13.35700703 C-13.20761359 9.08415571 -13.12840653 6.77224505 -10.83326721 3.07078552 C-7.21937284 -0.25650433 -4.84599915 0.0114402 0 0 Z " fill="#EB5047" transform="translate(237.7366485595703,162.85955810546875)"/>
<path d="M0 0 C0 30.69 0 61.38 0 93 C-30.69 93 -61.38 93 -93 93 C-93 36.50204082 -93 36.50204082 -77 19 C-54.63517167 -3.28408887 -32.72475162 0 0 0 Z " fill="#D33B63" transform="translate(195,202)"/>
<path d="M0 0 C101.64 0 203.28 0 308 0 C308 19 308 19 304 26 C299.93548387 29 299.93548387 29 297 29 C296.5875 27.948125 296.175 26.89625 295.75 25.8125 C293.21962857 20.02879387 290.12142246 16.36138656 284.33984375 13.734375 C279.13689176 12.10139508 273.80512784 11.88270332 268.6953125 13.91796875 C263.0929609 17.18424544 259.0618226 21.26959904 256.6875 27.375 C256.3471875 28.674375 256.3471875 28.674375 256 30 C252.7 30 249.4 30 246 30 C245.70867187 29.33613281 245.41734375 28.67226563 245.1171875 27.98828125 C242.04803747 21.37706185 239.43745012 17.06786647 232.64453125 13.90234375 C227.48593065 12.14217132 221.80410807 11.89821723 216.68359375 13.91015625 C209.86959074 17.93132311 206.52469801 22.42590597 204 30 C182.55 30 161.1 30 139 30 C137.35 26.7 135.7 23.4 134 20 C129.09581525 15.09581525 125.05213729 12.94989123 118.1875 12.625 C112.02070103 12.78993667 107.51660236 14.37374177 103.20703125 18.87109375 C100.09487034 22.78162373 99.01738222 24.91308891 98 30 C82.82 30 67.64 30 52 30 C50.68 27.03 49.36 24.06 48 21 C42.73144083 15.73144083 38.72328494 12.99259927 31.1875 12.625 C25.29693931 12.76525144 20.84738643 14.42068812 16.46484375 18.390625 C13.55514321 21.61419994 12.09075149 24.83531251 11 29 C6.04566415 27.76141604 3.81354269 26.27241667 1 22 C-1.32139805 15.03580586 0 7.34090518 0 0 Z " fill="#D94160" transform="translate(102,302)"/>
<path d="M0 0 C0 17.49 0 34.98 0 53 C-17.49 53 -34.98 53 -53 53 C-53 34.45440663 -52.57000216 24.22381673 -40.484375 11.390625 C-28.44727202 0.05471249 -16.27029572 0 0 0 Z " fill="#D33A62" transform="translate(175,222)"/>
<path d="M0 0 C48.18 0 96.36 0 146 0 C146 4.95 146 9.9 146 15 C97.82 15 49.64 15 0 15 C0 10.05 0 5.1 0 0 Z " fill="#EA4952" transform="translate(245,280)"/>
<path d="M0 0 C1.09183594 0.00064453 2.18367188 0.00128906 3.30859375 0.00195312 C11.34351504 0.04675752 11.34351504 0.04675752 13.625 1.1875 C13.625 22.6375 13.625 44.0875 13.625 66.1875 C10.8623743 67.56881285 8.63036598 67.31471691 5.53881836 67.31689453 C4.26086899 67.32004669 2.98291962 67.32319885 1.66624451 67.32644653 C0.26577724 67.32465689 -1.13468972 67.32260597 -2.53515625 67.3203125 C-3.96479814 67.32098579 -5.39443992 67.32195602 -6.82408142 67.32321167 C-9.82096445 67.324687 -12.81781769 67.32253906 -15.81469727 67.31787109 C-19.66408942 67.31216874 -23.51341194 67.31545704 -27.36280155 67.32144356 C-30.31465687 67.32504923 -33.26649556 67.32391065 -36.21835136 67.32131577 C-37.63818813 67.32064678 -39.05802638 67.32147393 -40.4778614 67.32379532 C-42.45797829 67.32632246 -44.43810045 67.32179071 -46.41821289 67.31689453 C-47.54691299 67.31609894 -48.6756131 67.31530334 -49.83851624 67.31448364 C-52.375 67.1875 -52.375 67.1875 -53.375 66.1875 C-54.45888736 52.78022496 -55.48900656 38.0741945 -48.375 26.1875 C-47.59576172 24.84945312 -47.59576172 24.84945312 -46.80078125 23.484375 C-39.3397315 11.86670313 -28.25380263 3.72586805 -14.72387695 0.55371094 C-9.84409121 -0.20709133 -4.92587991 -0.05644856 0 0 Z M-35.4140625 20.13671875 C-46.61448289 32.26653572 -46.375 43.11237964 -46.375 60.1875 C-28.885 60.1875 -11.395 60.1875 6.625 60.1875 C6.625 42.6975 6.625 25.2075 6.625 7.1875 C-11.85244868 7.1875 -22.42485188 7.71982967 -35.4140625 20.13671875 Z " fill="#FEFBFB" transform="translate(168.375,214.8125)"/>
<path d="M0 0 C4.30545186 2.23552308 7.56243355 4.78113499 10 9 C10.85050415 13.60834392 10.49304487 17.67450766 8.375 21.875 C5.38464874 25.80967271 2.96734891 27.52522417 -1.953125 28.3125 C-7.07795182 28.62546652 -9.99257503 27.35505346 -14 24 C-16.89626035 20.70425546 -17.89660298 18.09600845 -18.3125 13.6875 C-17.83274239 8.02636016 -15.46822047 5.26800859 -11.25 1.625 C-7.26765099 -0.36617451 -4.36551215 -0.86437141 0 0 Z " fill="#FCF8FA" transform="translate(137,321)"/>
<path d="M0 0 C3.75835253 2.42204941 6.18495565 4.48714731 7.3828125 8.92578125 C8.1953797 14.06915871 7.88205337 17.41280683 4.8125 21.8125 C0.39186731 25.90158524 -3.04890064 27.19036745 -9.125 27.08984375 C-12.61254073 26.6208752 -14.5916149 25.10653799 -17.1875 22.8125 C-20.03405189 18.73244229 -20.83281849 14.95544989 -20.67578125 10.0625 C-19.80445973 6.04745045 -17.29338074 3.38411227 -14.1875 0.8125 C-9.41735745 -1.99346621 -5.17502386 -1.92795007 0 0 Z " fill="#FEF9F9" transform="translate(385.1875,322.1875)"/>
<path d="M0 0 C3.75835253 2.42204941 6.18495565 4.48714731 7.3828125 8.92578125 C8.1953797 14.06915871 7.88205337 17.41280683 4.8125 21.8125 C0.39186731 25.90158524 -3.04890064 27.19036745 -9.125 27.08984375 C-12.61254073 26.6208752 -14.5916149 25.10653799 -17.1875 22.8125 C-20.03405189 18.73244229 -20.83281849 14.95544989 -20.67578125 10.0625 C-19.80445973 6.04745045 -17.29338074 3.38411227 -14.1875 0.8125 C-9.41735745 -1.99346621 -5.17502386 -1.92795007 0 0 Z " fill="#FEF9F9" transform="translate(333.1875,322.1875)"/>
<path d="M0 0 C4.68170268 1.74416374 7.21249191 3.87035839 10 8 C11.4959122 12.4877366 11.77306515 16.33790993 9.75 20.6875 C7.11740789 24.16628243 5.19920179 26.60026607 1 28 C-5.12093081 28.50171564 -8.1167095 28.08833623 -13 24 C-15.89626035 20.70425546 -16.89660298 18.09600845 -17.3125 13.6875 C-16.83082184 8.00369775 -14.46510409 5.23719901 -10.1875 1.625 C-6.37985365 -0.31615304 -4.22575274 -0.52821909 0 0 Z " fill="#FDF9FA" transform="translate(223,321)"/>
<path d="M0 0 C2.5 0.125 2.5 0.125 3.5 1.125 C3.5996392 3.35887206 3.62799795 5.59593859 3.62939453 7.83203125 C3.63114685 8.53282806 3.63289917 9.23362488 3.63470459 9.95565796 C3.63912266 12.28296349 3.63618529 14.61019364 3.6328125 16.9375 C3.63348555 18.54793309 3.63445559 20.15836609 3.63571167 21.76879883 C3.63718858 25.14828455 3.63503431 28.5277439 3.63037109 31.90722656 C3.6246738 36.24876505 3.62795285 40.59024173 3.63394356 44.93177795 C3.63754936 48.25850901 3.6364105 51.5852253 3.63381577 54.91195679 C3.63314655 56.51321418 3.63397474 58.1144729 3.63629532 59.71572876 C3.63882216 61.94984511 3.63498085 64.18386 3.62939453 66.41796875 C3.62820114 68.32872192 3.62820114 68.32872192 3.62698364 70.27807617 C3.5 73.125 3.5 73.125 2.5 74.125 C0 74.25 0 74.25 -2.5 74.125 C-4.39122114 72.23377886 -3.62782618 68.92908428 -3.62939453 66.41796875 C-3.63114685 65.71717194 -3.63289917 65.01637512 -3.63470459 64.29434204 C-3.63912266 61.96703651 -3.63618529 59.63980636 -3.6328125 57.3125 C-3.63348555 55.70206691 -3.63445559 54.09163391 -3.63571167 52.48120117 C-3.63718858 49.10171545 -3.63503431 45.7222561 -3.63037109 42.34277344 C-3.6246738 38.00123495 -3.62795285 33.65975827 -3.63394356 29.31822205 C-3.63754936 25.99149099 -3.6364105 22.6647747 -3.63381577 19.33804321 C-3.63314655 17.73678582 -3.63397474 16.1355271 -3.63629532 14.53427124 C-3.63882216 12.30015489 -3.63498085 10.06614 -3.62939453 7.83203125 C-3.62859894 6.5581958 -3.62780334 5.28436035 -3.62698364 3.97192383 C-3.45753167 0.17287658 -3.45753167 0.17287658 0 0 Z " fill="#FEF9F9" transform="translate(317.5,180.875)"/>
<path d="M0 0 C2.5 0.125 2.5 0.125 3.5 1.125 C3.5996392 3.35887206 3.62799795 5.59593859 3.62939453 7.83203125 C3.63114685 8.53282806 3.63289917 9.23362488 3.63470459 9.95565796 C3.63912266 12.28296349 3.63618529 14.61019364 3.6328125 16.9375 C3.63348555 18.54793309 3.63445559 20.15836609 3.63571167 21.76879883 C3.63718858 25.14828455 3.63503431 28.5277439 3.63037109 31.90722656 C3.6246738 36.24876505 3.62795285 40.59024173 3.63394356 44.93177795 C3.63754936 48.25850901 3.6364105 51.5852253 3.63381577 54.91195679 C3.63314655 56.51321418 3.63397474 58.1144729 3.63629532 59.71572876 C3.63882216 61.94984511 3.63498085 64.18386 3.62939453 66.41796875 C3.62820114 68.32872192 3.62820114 68.32872192 3.62698364 70.27807617 C3.5 73.125 3.5 73.125 2.5 74.125 C0 74.25 0 74.25 -2.5 74.125 C-4.39122114 72.23377886 -3.62782618 68.92908428 -3.62939453 66.41796875 C-3.63114685 65.71717194 -3.63289917 65.01637512 -3.63470459 64.29434204 C-3.63912266 61.96703651 -3.63618529 59.63980636 -3.6328125 57.3125 C-3.63348555 55.70206691 -3.63445559 54.09163391 -3.63571167 52.48120117 C-3.63718858 49.10171545 -3.63503431 45.7222561 -3.63037109 42.34277344 C-3.6246738 38.00123495 -3.62795285 33.65975827 -3.63394356 29.31822205 C-3.63754936 25.99149099 -3.6364105 22.6647747 -3.63381577 19.33804321 C-3.63314655 17.73678582 -3.63397474 16.1355271 -3.63629532 14.53427124 C-3.63882216 12.30015489 -3.63498085 10.06614 -3.62939453 7.83203125 C-3.62859894 6.5581958 -3.62780334 5.28436035 -3.62698364 3.97192383 C-3.45753167 0.17287658 -3.45753167 0.17287658 0 0 Z " fill="#FEFBFB" transform="translate(285.5,180.875)"/>
<path d="M0 0 C2.5 0.125 2.5 0.125 3.5 1.125 C3.5996392 3.35887206 3.62799795 5.59593859 3.62939453 7.83203125 C3.63114685 8.53282806 3.63289917 9.23362488 3.63470459 9.95565796 C3.63912266 12.28296349 3.63618529 14.61019364 3.6328125 16.9375 C3.63348555 18.54793309 3.63445559 20.15836609 3.63571167 21.76879883 C3.63718858 25.14828455 3.63503431 28.5277439 3.63037109 31.90722656 C3.6246738 36.24876505 3.62795285 40.59024173 3.63394356 44.93177795 C3.63754936 48.25850901 3.6364105 51.5852253 3.63381577 54.91195679 C3.63314655 56.51321418 3.63397474 58.1144729 3.63629532 59.71572876 C3.63882216 61.94984511 3.63498085 64.18386 3.62939453 66.41796875 C3.62820114 68.32872192 3.62820114 68.32872192 3.62698364 70.27807617 C3.5 73.125 3.5 73.125 2.5 74.125 C0 74.25 0 74.25 -2.5 74.125 C-4.39122114 72.23377886 -3.62782618 68.92908428 -3.62939453 66.41796875 C-3.63114685 65.71717194 -3.63289917 65.01637512 -3.63470459 64.29434204 C-3.63912266 61.96703651 -3.63618529 59.63980636 -3.6328125 57.3125 C-3.63348555 55.70206691 -3.63445559 54.09163391 -3.63571167 52.48120117 C-3.63718858 49.10171545 -3.63503431 45.7222561 -3.63037109 42.34277344 C-3.6246738 38.00123495 -3.62795285 33.65975827 -3.63394356 29.31822205 C-3.63754936 25.99149099 -3.6364105 22.6647747 -3.63381577 19.33804321 C-3.63314655 17.73678582 -3.63397474 16.1355271 -3.63629532 14.53427124 C-3.63882216 12.30015489 -3.63498085 10.06614 -3.62939453 7.83203125 C-3.62859894 6.5581958 -3.62780334 5.28436035 -3.62698364 3.97192383 C-3.45753167 0.17287658 -3.45753167 0.17287658 0 0 Z " fill="#FEFCFC" transform="translate(253.5,180.875)"/>
<path d="M0 0 C2.5 0.125 2.5 0.125 3.5 1.125 C3.5996392 3.35887206 3.62799795 5.59593859 3.62939453 7.83203125 C3.63114685 8.53282806 3.63289917 9.23362488 3.63470459 9.95565796 C3.63912266 12.28296349 3.63618529 14.61019364 3.6328125 16.9375 C3.63348555 18.54793309 3.63445559 20.15836609 3.63571167 21.76879883 C3.63718858 25.14828455 3.63503431 28.5277439 3.63037109 31.90722656 C3.6246738 36.24876505 3.62795285 40.59024173 3.63394356 44.93177795 C3.63754936 48.25850901 3.6364105 51.5852253 3.63381577 54.91195679 C3.63314655 56.51321418 3.63397474 58.1144729 3.63629532 59.71572876 C3.63882216 61.94984511 3.63498085 64.18386 3.62939453 66.41796875 C3.62820114 68.32872192 3.62820114 68.32872192 3.62698364 70.27807617 C3.5 73.125 3.5 73.125 2.5 74.125 C0.83382885 74.16563832 -0.83388095 74.167721 -2.5 74.125 C-3.95772894 71.20954213 -3.62732852 68.6522672 -3.62939453 65.39624023 C-3.63114685 64.70505096 -3.63289917 64.01386169 -3.63470459 63.30172729 C-3.63911342 61.01232407 -3.63618884 58.72299779 -3.6328125 56.43359375 C-3.63348574 54.84701014 -3.63445593 53.26042664 -3.63571167 51.67384338 C-3.63718726 48.3474123 -3.63503823 45.02100805 -3.63037109 41.69458008 C-3.62466924 37.42145119 -3.62795656 33.14838504 -3.63394356 28.87525845 C-3.63754894 25.59914167 -3.63641077 22.3230399 -3.63381577 19.04692268 C-3.63314667 17.47078507 -3.6339743 15.89464611 -3.63629532 14.31851006 C-3.63882198 12.12042483 -3.63498131 9.92244274 -3.62939453 7.72436523 C-3.62859894 6.47131088 -3.62780334 5.21825653 -3.62698364 3.92723083 C-3.4568528 0.17284264 -3.4568528 0.17284264 0 0 Z " fill="#FEF8F7" transform="translate(349.5,180.875)"/>
<path d="M0 0 C1.66611905 -0.042721 3.33382885 -0.04063832 5 0 C6.89122114 1.89122114 6.12782618 5.19591572 6.12939453 7.70703125 C6.13114685 8.40782806 6.13289917 9.10862488 6.13470459 9.83065796 C6.13912266 12.15796349 6.13618529 14.48519364 6.1328125 16.8125 C6.13348555 18.42293309 6.13445559 20.03336609 6.13571167 21.64379883 C6.13718858 25.02328455 6.13503431 28.4027439 6.13037109 31.78222656 C6.1246738 36.12376505 6.12795285 40.46524173 6.13394356 44.80677795 C6.13754936 48.13350901 6.1364105 51.4602253 6.13381577 54.78695679 C6.13314655 56.38821418 6.13397474 57.9894729 6.13629532 59.59072876 C6.13882216 61.82484511 6.13498085 64.05886 6.12939453 66.29296875 C6.12820114 68.20372192 6.12820114 68.20372192 6.12698364 70.15307617 C6 73 6 73 5 74 C3.33382885 74.04063832 1.66611905 74.042721 0 74 C-1.44498338 71.11003324 -1.12731121 68.60778788 -1.12939453 65.37890625 C-1.13114685 64.69907684 -1.13289917 64.01924744 -1.13470459 63.31881714 C-1.13911375 61.06668563 -1.13618841 58.81463234 -1.1328125 56.5625 C-1.13348581 55.00073227 -1.13445606 53.43896464 -1.13571167 51.87719727 C-1.13718737 48.60204064 -1.13503817 45.32691127 -1.13037109 42.05175781 C-1.12467388 37.84822928 -1.12795356 33.64476459 -1.13394356 29.4412384 C-1.1375526 26.21569333 -1.136409 22.99016345 -1.13381577 19.76461792 C-1.13314745 18.2144266 -1.13397161 16.66423391 -1.13629532 15.11404419 C-1.13882745 12.94969005 -1.13497332 10.78544011 -1.12939453 8.62109375 C-1.12859894 7.3880249 -1.12780334 6.15495605 -1.12698364 4.88452148 C-1 2 -1 2 0 0 Z " fill="#FEF7F6" transform="translate(379,181)"/>
<path d="M0 0 C4.30545186 2.23552308 7.56243355 4.78113499 10 9 C10.85050415 13.60834392 10.49304487 17.67450766 8.375 21.875 C5.38464874 25.80967271 2.96734891 27.52522417 -1.953125 28.3125 C-7.07795182 28.62546652 -9.99257503 27.35505346 -14 24 C-16.89626035 20.70425546 -17.89660298 18.09600845 -18.3125 13.6875 C-17.83274239 8.02636016 -15.46822047 5.26800859 -11.25 1.625 C-7.26765099 -0.36617451 -4.36551215 -0.86437141 0 0 Z M-13 8 C-14.53214888 11.06429776 -14.22938548 13.6165642 -14 17 C-12.34860695 20.5386994 -11.28394771 21.81070153 -8 24 C-3.36721733 24.82418418 0.02726907 24.59554955 4.0625 22.125 C6.78501403 17.73384833 7.14666551 14.03212922 6 9 C4.27213531 6.17258505 3.09198143 5.65641862 0 4 C-5.44917034 2.82093975 -9.11018609 3.99231294 -13 8 Z " fill="#BC427C" transform="translate(137,321)"/>
<path d="M0 0 C3.75835253 2.42204941 6.18495565 4.48714731 7.3828125 8.92578125 C8.1953797 14.06915871 7.88205337 17.41280683 4.8125 21.8125 C0.39186731 25.90158524 -3.04890064 27.19036745 -9.125 27.08984375 C-12.61254073 26.6208752 -14.5916149 25.10653799 -17.1875 22.8125 C-20.03405189 18.73244229 -20.83281849 14.95544989 -20.67578125 10.0625 C-19.80445973 6.04745045 -17.29338074 3.38411227 -14.1875 0.8125 C-9.41735745 -1.99346621 -5.17502386 -1.92795007 0 0 Z M-14.25 4.6875 C-16.98126084 9.09275942 -17.18937438 12.76172834 -16.1875 17.8125 C-14.45727606 21.12616812 -14.45727606 21.12616812 -11.1875 22.8125 C-6.53612657 23.74613915 -3.26542438 23.46374598 0.8125 21 C3.41815434 18.15006556 3.77078582 16.26301314 4.125 12.4375 C3.76134973 8.21915686 2.76365008 6.76365008 -0.1875 3.8125 C-4.85463896 1.47893052 -9.91904804 2.03589676 -14.25 4.6875 Z " fill="#EC575C" transform="translate(385.1875,322.1875)"/>
<path d="M0 0 C3.75835253 2.42204941 6.18495565 4.48714731 7.3828125 8.92578125 C8.1953797 14.06915871 7.88205337 17.41280683 4.8125 21.8125 C0.39186731 25.90158524 -3.04890064 27.19036745 -9.125 27.08984375 C-12.61254073 26.6208752 -14.5916149 25.10653799 -17.1875 22.8125 C-20.03405189 18.73244229 -20.83281849 14.95544989 -20.67578125 10.0625 C-19.80445973 6.04745045 -17.29338074 3.38411227 -14.1875 0.8125 C-9.41735745 -1.99346621 -5.17502386 -1.92795007 0 0 Z M-14.25 4.6875 C-16.98126084 9.09275942 -17.18937438 12.76172834 -16.1875 17.8125 C-14.45727606 21.12616812 -14.45727606 21.12616812 -11.1875 22.8125 C-6.53612657 23.74613915 -3.26542438 23.46374598 0.8125 21 C3.41815434 18.15006556 3.77078582 16.26301314 4.125 12.4375 C3.76134973 8.21915686 2.76365008 6.76365008 -0.1875 3.8125 C-4.85463896 1.47893052 -9.91904804 2.03589676 -14.25 4.6875 Z " fill="#EA5162" transform="translate(333.1875,322.1875)"/>
<path d="M0 0 C4.68170268 1.74416374 7.21249191 3.87035839 10 8 C11.4959122 12.4877366 11.77306515 16.33790993 9.75 20.6875 C7.11740789 24.16628243 5.19920179 26.60026607 1 28 C-5.12093081 28.50171564 -8.1167095 28.08833623 -13 24 C-15.89626035 20.70425546 -16.89660298 18.09600845 -17.3125 13.6875 C-16.83082184 8.00369775 -14.46510409 5.23719901 -10.1875 1.625 C-6.37985365 -0.31615304 -4.22575274 -0.52821909 0 0 Z M-12 8 C-13.60086627 11.20173254 -13.49917089 14.52577059 -13 18 C-11.20636089 20.8100346 -9.98119065 22.50940468 -7 24 C-2.08298685 24.49170132 0.09801367 24.48320696 4.5 22.125 C7.07128221 19.65261326 7.51897867 17.51782484 7.75 14 C7.51897867 10.48217516 7.07128221 8.34738674 4.5 5.875 C-1.75942074 2.52173889 -6.80570167 2.64829869 -12 8 Z " fill="#D2466F" transform="translate(223,321)"/>
<path d="M0 0 C2.625 0.375 2.625 0.375 5 1 C4.67 2.65 4.34 4.3 4 6 C2.35 6 0.7 6 -1 6 C-1.625 4.125 -1.625 4.125 -2 2 C-1.34 1.34 -0.68 0.68 0 0 Z " fill="#EC555A" transform="translate(377,332)"/>
<path d="M0 0 C2.625 0.375 2.625 0.375 5 1 C4.67 2.65 4.34 4.3 4 6 C2.35 6 0.7 6 -1 6 C-1.625 4.125 -1.625 4.125 -2 2 C-1.34 1.34 -0.68 0.68 0 0 Z " fill="#EA4F61" transform="translate(325,332)"/>
<path d="M0 0 C1.67542976 0.28604898 3.34385343 0.61781233 5 1 C5.33 1.99 5.66 2.98 6 4 C5.67 4.66 5.34 5.32 5 6 C3.35 6 1.7 6 0 6 C-0.38218767 4.34385343 -0.71395102 2.67542976 -1 1 C-0.67 0.67 -0.34 0.34 0 0 Z " fill="#BB3F7A" transform="translate(131,332)"/>
<path d="M0 0 C1.65 0.33 3.3 0.66 5 1 C4.67 2.65 4.34 4.3 4 6 C2.35 5.67 0.7 5.34 -1 5 C-0.67 3.35 -0.34 1.7 0 0 Z " fill="#CF3D68" transform="translate(218,332)"/>
</svg>
